<!DOCTYPE svg PUBLIC "-//W3C//DTD SVG 1.1//EN" "http://www.w3.org/Graphics/SVG/1.1/DTD/svg11.dtd">
<!-- Uploaded to: SVG Repo, www.svgrepo.com, Transformed by: SVG Repo Mixer Tools -->
<svg width="800px" height="800px" viewBox="0 0 24 24" xmlns="http://www.w3.org/2000/svg" fill="#cf5c36">
<g id="SVGRepo_bgCarrier" stroke-width="0"/>
<g id="SVGRepo_tracerCarrier" stroke-linecap="round" stroke-linejoin="round"/>
<g id="SVGRepo_iconCarrier"> <path fill="#cf5c36" d="M8 7c0 .83-.67 1.5-1.5 1.5-.44 0-.84-.19-1.11-.5H3c-.55 0-1-.45-1-1s.45-1 1-1h2.39c.27-.31.67-.5 1.11-.5.83 0 1.5.67 1.5 1.5zM8 17c0 .83-.67 1.5-1.5 1.5-.44 0-.84-.19-1.11-.5H3c-.55 0-1-.45-1-1s.45-1 1-1h2.39c.27-.31.67-.5 1.11-.5.83 0 1.5.67 1.5 1.5z"/> <path fill="#cf5c36" d="M21 2v20c0 1.1-.9 2-2 2H5c-1.1 0-2-.9-2-2v-1c0-.55.45-1 1-1s1 .45 1 1v.5c0 .28.22.5.5.5h13c.28 0 .5-.22.5-.5v-19c0-.28-.22-.5-.5-.5h-13c-.28 0-.5.22-.5.5V3c0 .55-.45 1-1 1s-1-.45-1-1V2c0-1.1.9-2 2-2h14c1.1 0 2 .9 2 2z"/> <path fill="#cf5c36" d="M8 12c0 .83-.67 1.5-1.5 1.5-.44 0-.84-.19-1.11-.5H3c-.55 0-1-.45-1-1s.45-1 1-1h2.39c.27-.31.67-.5 1.11-.5.83 0 1.5.67 1.5 1.5z"/> </g>
</svg>