<!DOCTYPE svg PUBLIC "-//W3C//DTD SVG 1.1//EN" "http://www.w3.org/Graphics/SVG/1.1/DTD/svg11.dtd">
<!-- Uploaded to: SVG Repo, www.svgrepo.com, Transformed by: SVG Repo Mixer Tools -->
<svg height="800px" width="800px" version="1.1" id="Layer_1" xmlns="http://www.w3.org/2000/svg" xmlns:xlink="http://www.w3.org/1999/xlink" viewBox="-51.2 -51.2 614.40 614.40" xml:space="preserve" fill="#292b3d" stroke="#292b3d" stroke-width="10.24" transform="matrix(1, 0, 0, 1, 0, 0)rotate(0)">
<g id="SVGRepo_bgCarrier" stroke-width="0" transform="translate(43.52000000000001,43.52000000000001), scale(0.83)">
<rect x="-51.2" y="-51.2" width="614.40" height="614.40" rx="307.2" fill="#cf5c36" strokewidth="0"/>
</g>
<g id="SVGRepo_tracerCarrier" stroke-linecap="round" stroke-linejoin="round" stroke="#dddfe4" stroke-width="1.024"/>
<g id="SVGRepo_iconCarrier"> <path style="fill:#565676;" d="M381.132,33.758H180.38C175.371,14.345,157.704,0,136.721,0v78.786l144.035,123.566L424.791,78.786V0 C403.808,0,386.141,14.345,381.132,33.758z"/> <path style="fill:#dddfe4;" d="M280.756,162.438c-23.971-55.823-79.433-94.921-144.035-94.921V223.93l144.035,44.709l144.035-44.709 V67.516C360.189,67.516,304.727,106.615,280.756,162.438z"/> <g> <circle style="fill:#FFFFFF;" cx="362.631" cy="155.626" r="28.132"/> <circle style="fill:#FFFFFF;" cx="198.881" cy="155.626" r="28.132"/> </g> <path style="fill:#bdc8e2;" d="M136.721,223.93V512c158.892,0,288.07-128.973,288.07-288.07H136.721z"/> <path style="fill:#565676;" d="M174.98,214.927c-48.475,0-87.771,39.297-87.771,87.771v175.543 c96.824,0,175.543-78.594,175.543-175.543C262.752,254.224,223.455,214.927,174.98,214.927z"/> <g> <path style="fill:#292b3d;" d="M137.846,328.018c-13.961,0-25.319-11.357-25.319-25.319c0-4.661,3.779-8.44,8.44-8.44 c4.661,0,8.44,3.779,8.44,8.44c0,4.654,3.785,8.44,8.44,8.44s8.44-3.785,8.44-8.44c0-4.661,3.779-8.44,8.44-8.44 s8.44,3.779,8.44,8.44C163.165,316.66,151.807,328.018,137.846,328.018z"/> <path style="fill:#292b3d;" d="M154.725,378.655c-13.961,0-25.319-11.357-25.319-25.319c0-4.661,3.779-8.44,8.44-8.44 s8.44,3.779,8.44,8.44c0,4.654,3.785,8.44,8.44,8.44s8.44-3.785,8.44-8.44c0-4.661,3.779-8.44,8.44-8.44s8.44,3.779,8.44,8.44 C180.044,367.298,168.687,378.655,154.725,378.655z"/> </g> </g>
</svg>