<!DOCTYPE svg PUBLIC "-//W3C//DTD SVG 1.1//EN" "http://www.w3.org/Graphics/SVG/1.1/DTD/svg11.dtd">
<!-- Uploaded to: SVG Repo, www.svgrepo.com, Transformed by: SVG Repo Mixer Tools -->
<svg height="800px" width="800px" version="1.1" id="Layer_1" xmlns="http://www.w3.org/2000/svg" xmlns:xlink="http://www.w3.org/1999/xlink" viewBox="-51.2 -51.2 614.40 614.40" xml:space="preserve" fill="#000000">
<g id="SVGRepo_bgCarrier" stroke-width="0" transform="translate(38.400000000000006,38.400000000000006), scale(0.85)">
<rect x="-51.2" y="-51.2" width="614.40" height="614.40" rx="307.2" fill="#828282" strokewidth="0"/>
</g>
<g id="SVGRepo_tracerCarrier" stroke-linecap="round" stroke-linejoin="round" stroke="#ffffff" stroke-width="20.48"> <path style="fill:#666666;" d="M377.138,40.851H182.794c-4.85-18.794-21.953-32.681-42.266-32.681v76.272l139.438,119.623 L419.404,84.442V8.17C399.091,8.17,381.988,22.057,377.138,40.851z"/> <path style="fill:#e0e0e0;" d="M279.966,165.424c-23.206-54.041-76.898-91.892-139.438-91.892v151.421l139.438,43.283 l139.438-43.283V73.532C356.864,73.532,303.172,111.383,279.966,165.424z"/> <g> <circle style="fill:#FFFFFF;" cx="359.228" cy="158.829" r="27.234"/> <circle style="fill:#FFFFFF;" cx="200.704" cy="158.829" r="27.234"/> </g> <path style="fill:#c2c2c2;" d="M140.528,224.953V503.83c153.821,0,278.877-124.857,278.877-278.877H140.528z"/> <path style="fill:#666666;" d="M177.566,216.238c-46.928,0-84.97,38.043-84.97,84.97v169.94c93.734,0,169.94-76.085,169.94-169.94 C262.536,254.281,224.493,216.238,177.566,216.238z"/> <g> <path style="fill:#333333;" d="M359.225,194.236c19.522,0,35.404-15.883,35.404-35.404s-15.882-35.404-35.404-35.404 c-19.522,0-35.404,15.883-35.404,35.404S339.702,194.236,359.225,194.236z M359.225,139.768c10.511,0,19.064,8.553,19.064,19.064 c0,10.511-8.553,19.064-19.064,19.064c-10.511,0-19.064-8.553-19.064-19.064C340.161,148.321,348.712,139.768,359.225,139.768z"/> <path style="fill:#333333;" d="M236.112,158.832c0-19.521-15.883-35.404-35.404-35.404s-35.404,15.883-35.404,35.404 s15.883,35.404,35.404,35.404S236.112,178.354,236.112,158.832z M181.643,158.832c0-10.511,8.553-19.064,19.064-19.064 c10.511,0,19.064,8.553,19.064,19.064c0,10.511-8.553,19.064-19.064,19.064C190.196,177.896,181.643,169.343,181.643,158.832z"/> <path style="fill:#333333;" d="M419.404,0c-21.47,0-40.456,13.155-48.182,32.681H188.71C180.983,13.155,161.998,0,140.528,0 c-4.512,0-8.17,3.658-8.17,8.17v181.366c0,4.512,3.658,8.17,8.17,8.17c4.512,0,8.17-3.658,8.17-8.17V81.957 c54.16,3.064,102.161,36.39,123.76,86.69c1.29,3.001,4.242,4.947,7.508,4.947s6.218-1.946,7.508-4.947 c21.599-50.3,69.6-83.626,123.76-86.69v142.996c0,146.535-117.033,266.25-262.536,270.584v-25.28 c70.805-23.559,122.008-90.433,122.008-169.05c0-51.358-41.782-93.14-93.14-93.14s-93.14,41.782-93.14,93.14v169.94 c0,4.512,3.658,8.17,8.17,8.17c13.664,0,26.973-1.551,39.762-4.478v28.99c0,4.512,3.658,8.17,8.17,8.17 c158.278,0,287.047-128.769,287.047-287.047V8.17C427.574,3.658,423.917,0,419.404,0z M100.766,301.208 c0-42.348,34.452-76.8,76.8-76.8s76.8,34.452,76.8,76.8c0,86.462-68.179,157.298-153.6,161.566V301.208z M279.966,146.981 c-26.766-47.73-76.215-78.594-131.268-81.389V17.287c12.605,2.969,22.848,12.674,26.185,25.604 c0.931,3.608,4.185,6.129,7.911,6.129h194.344c3.726,0,6.98-2.521,7.911-6.129c3.337-12.931,13.58-22.636,26.185-25.604v48.304 C356.18,68.387,306.732,99.251,279.966,146.981z"/> <path style="fill:#333333;" d="M166.128,301.208c0-4.512-3.658-8.17-8.17-8.17s-8.17,3.658-8.17,8.17c0,4.506-3.665,8.17-8.17,8.17 s-8.17-3.665-8.17-8.17c0-4.512-3.658-8.17-8.17-8.17c-4.512,0-8.17,3.658-8.17,8.17c0,13.516,10.995,24.511,24.511,24.511 C155.133,325.719,166.128,314.724,166.128,301.208z"/> <path style="fill:#333333;" d="M174.298,342.06c-4.512,0-8.17,3.658-8.17,8.17c0,4.506-3.665,8.17-8.17,8.17s-8.17-3.665-8.17-8.17 c0-4.512-3.658-8.17-8.17-8.17s-8.17,3.658-8.17,8.17c0,13.516,10.995,24.511,24.511,24.511c13.516,0,24.511-10.995,24.511-24.511 C182.468,345.718,178.81,342.06,174.298,342.06z"/> </g> </g>
<g id="SVGRepo_iconCarrier"> <path style="fill:#666666;" d="M377.138,40.851H182.794c-4.85-18.794-21.953-32.681-42.266-32.681v76.272l139.438,119.623 L419.404,84.442V8.17C399.091,8.17,381.988,22.057,377.138,40.851z"/> <path style="fill:#e0e0e0;" d="M279.966,165.424c-23.206-54.041-76.898-91.892-139.438-91.892v151.421l139.438,43.283 l139.438-43.283V73.532C356.864,73.532,303.172,111.383,279.966,165.424z"/> <g> <circle style="fill:#FFFFFF;" cx="359.228" cy="158.829" r="27.234"/> <circle style="fill:#FFFFFF;" cx="200.704" cy="158.829" r="27.234"/> </g> <path style="fill:#c2c2c2;" d="M140.528,224.953V503.83c153.821,0,278.877-124.857,278.877-278.877H140.528z"/> <path style="fill:#666666;" d="M177.566,216.238c-46.928,0-84.97,38.043-84.97,84.97v169.94c93.734,0,169.94-76.085,169.94-169.94 C262.536,254.281,224.493,216.238,177.566,216.238z"/> <g> <path style="fill:#333333;" d="M359.225,194.236c19.522,0,35.404-15.883,35.404-35.404s-15.882-35.404-35.404-35.404 c-19.522,0-35.404,15.883-35.404,35.404S339.702,194.236,359.225,194.236z M359.225,139.768c10.511,0,19.064,8.553,19.064,19.064 c0,10.511-8.553,19.064-19.064,19.064c-10.511,0-19.064-8.553-19.064-19.064C340.161,148.321,348.712,139.768,359.225,139.768z"/> <path style="fill:#333333;" d="M236.112,158.832c0-19.521-15.883-35.404-35.404-35.404s-35.404,15.883-35.404,35.404 s15.883,35.404,35.404,35.404S236.112,178.354,236.112,158.832z M181.643,158.832c0-10.511,8.553-19.064,19.064-19.064 c10.511,0,19.064,8.553,19.064,19.064c0,10.511-8.553,19.064-19.064,19.064C190.196,177.896,181.643,169.343,181.643,158.832z"/> <path style="fill:#333333;" d="M419.404,0c-21.47,0-40.456,13.155-48.182,32.681H188.71C180.983,13.155,161.998,0,140.528,0 c-4.512,0-8.17,3.658-8.17,8.17v181.366c0,4.512,3.658,8.17,8.17,8.17c4.512,0,8.17-3.658,8.17-8.17V81.957 c54.16,3.064,102.161,36.39,123.76,86.69c1.29,3.001,4.242,4.947,7.508,4.947s6.218-1.946,7.508-4.947 c21.599-50.3,69.6-83.626,123.76-86.69v142.996c0,146.535-117.033,266.25-262.536,270.584v-25.28 c70.805-23.559,122.008-90.433,122.008-169.05c0-51.358-41.782-93.14-93.14-93.14s-93.14,41.782-93.14,93.14v169.94 c0,4.512,3.658,8.17,8.17,8.17c13.664,0,26.973-1.551,39.762-4.478v28.99c0,4.512,3.658,8.17,8.17,8.17 c158.278,0,287.047-128.769,287.047-287.047V8.17C427.574,3.658,423.917,0,419.404,0z M100.766,301.208 c0-42.348,34.452-76.8,76.8-76.8s76.8,34.452,76.8,76.8c0,86.462-68.179,157.298-153.6,161.566V301.208z M279.966,146.981 c-26.766-47.73-76.215-78.594-131.268-81.389V17.287c12.605,2.969,22.848,12.674,26.185,25.604 c0.931,3.608,4.185,6.129,7.911,6.129h194.344c3.726,0,6.98-2.521,7.911-6.129c3.337-12.931,13.58-22.636,26.185-25.604v48.304 C356.18,68.387,306.732,99.251,279.966,146.981z"/> <path style="fill:#333333;" d="M166.128,301.208c0-4.512-3.658-8.17-8.17-8.17s-8.17,3.658-8.17,8.17c0,4.506-3.665,8.17-8.17,8.17 s-8.17-3.665-8.17-8.17c0-4.512-3.658-8.17-8.17-8.17c-4.512,0-8.17,3.658-8.17,8.17c0,13.516,10.995,24.511,24.511,24.511 C155.133,325.719,166.128,314.724,166.128,301.208z"/> <path style="fill:#333333;" d="M174.298,342.06c-4.512,0-8.17,3.658-8.17,8.17c0,4.506-3.665,8.17-8.17,8.17s-8.17-3.665-8.17-8.17 c0-4.512-3.658-8.17-8.17-8.17s-8.17,3.658-8.17,8.17c0,13.516,10.995,24.511,24.511,24.511c13.516,0,24.511-10.995,24.511-24.511 C182.468,345.718,178.81,342.06,174.298,342.06z"/> </g> </g>
</svg>